<?xml version="1.0" standalone="no"?>
<!DOCTYPE svg PUBLIC "-//W3C//DTD SVG 20010904//EN"
 "http://www.w3.org/TR/2001/REC-SVG-20010904/DTD/svg10.dtd">
<svg version="1.0" xmlns="http://www.w3.org/2000/svg"
 width="256.000000pt" height="256.000000pt" viewBox="0 0 256.000000 256.000000"
 preserveAspectRatio="xMidYMid meet">
<metadata>
Created by potrace 1.11, written by Peter Selinger 2001-2013
</metadata>
<g transform="translate(0.000000,256.000000) scale(0.100000,-0.100000)"
fill="#000000" stroke="none">
<path d="M0 1280 l0 -1280 1280 0 1280 0 0 1280 0 1280 -1280 0 -1280 0 0
-1280z m765 1035 c161 -90 402 -352 457 -497 34 -89 15 -163 -60 -230 -93 -84
-248 -138 -393 -138 l-85 0 -33 -232 c-28 -206 -52 -390 -106 -837 -18 -144
-30 -176 -65 -176 -19 0 -26 6 -31 30 -11 53 -9 156 6 285 19 165 35 560 35
890 0 342 15 639 36 732 18 80 55 172 82 201 23 26 79 16 157 -28z m1010 -325
c11 -18 -26 -71 -113 -163 -112 -117 -163 -185 -202 -270 -51 -108 -40 -134
151 -344 190 -210 309 -382 364 -526 29 -78 31 -116 10 -158 -30 -58 -163
-129 -241 -129 -45 0 -242 64 -285 93 -40 27 -50 68 -23 98 24 26 50 24 70 -7
29 -44 89 -67 185 -72 98 -5 164 16 194 62 33 50 -2 172 -81 283 -73 103 -237
297 -344 407 l-95 98 1 92 c2 146 38 216 211 405 109 118 177 164 198 131z
m-815 -1549 c5 -21 17 -44 25 -51 19 -16 19 -71 0 -96 -15 -19 -15 -19 -30 1
-29 36 -44 129 -29 169 10 27 23 18 34 -23z m1194 17 c8 -14 6 -22 -11 -40
-22 -21 -23 -21 -43 -3 -23 21 -25 36 -8 53 17 17 48 11 62 -10z"/>
<path d="M663 2195 c5 -48 3 -56 -14 -66 -19 -10 -19 -11 10 -38 40 -38 45
-83 37 -338 l-6 -211 49 -7 c70 -10 151 10 258 61 95 45 133 80 133 120 0 50
-73 227 -122 296 -10 15 -34 35 -52 43 -18 9 -63 43 -101 77 -98 86 -144 118
-173 118 -24 0 -25 -2 -19 -55z"/>
<path d="M580 2014 c-11 -28 -14 -356 -4 -416 7 -43 19 -49 28 -15 11 37 19
318 12 390 -8 70 -20 84 -36 41z"/>
</g>
</svg>
